<svg t="1599560833510" class="icon" style="width: 1em; height: 1em;vertical-align: middle;fill: currentColor;overflow: hidden;" viewBox="0 0 1024 1024" version="1.1" xmlns="http://www.w3.org/2000/svg" p-id="2023" data-spm-anchor-id="a313x.7781069.0.i2"><path d="M179.8688 550.112c-18.9408-18.9408-18.9408-49.6416 0-68.592L477.7088 183.68c9.4656-9.456 21.8784-14.1984 34.2912-14.1984s24.8256 4.7328 34.2912 14.1984l297.8304 297.84c18.9408 18.9504 18.9408 49.6512 0 68.592s-49.6512 18.9408-68.6016 0L512 286.5824 248.4704 550.112C229.52 569.0432 198.8096 569.0432 179.8688 550.112zM546.2912 473.8784C536.8256 464.4224 524.4128 459.68 512 459.68s-24.8256 4.7424-34.2912 14.1984L179.8688 771.7184c-18.9408 18.9504-18.9408 49.6608 0 68.6016s49.6512 18.9408 68.6016 0L512 576.7808l263.5296 263.5296c18.9504 18.9408 49.6608 18.9408 68.6016 0s18.9408-49.6512 0-68.6016L546.2912 473.8784z" fill="#2cc8cd" p-id="2024"></path></svg>