<svg t="1599489387160" class="icon" style="width: 1em; height: 1em;vertical-align: middle;fill: currentColor;overflow: hidden;" viewBox="0 0 1024 1024" version="1.1" xmlns="http://www.w3.org/2000/svg" p-id="2282"><path d="M171.33696 848A398.72 398.72 0 0 1 20.29696 646.4L128.45696 611.2a289.28 289.28 0 0 0 108.8 145.28zM397.89696 919.04a401.28 401.28 0 0 1-152.32-30.08l42.88-103.68a280.32 280.32 0 0 0 123.52 21.76 284.8 284.8 0 0 0 69.12-12.16L512.45696 902.4a407.04 407.04 0 0 1-96 16zM584.13696 872.96l-52.48-99.2a282.24 282.24 0 0 0 93.44-78.08l88.32 67.84a401.28 401.28 0 0 1-129.28 109.44zM691.01696 665.6l-7.04-158.08a286.08 286.08 0 0 0-571.52 27.52L0.45696 540.16a397.44 397.44 0 0 1 794.24-37.76l7.68 158.08z" fill="#2cc8cd" p-id="2283"></path><path d="M749.25696 739.84L448.45696 464.64h576zM735.17696 576l10.24 8.96 8.96-8.96z" fill="#2cc8cd" p-id="2284"></path></svg>