<svg t="1599489464990" class="icon" style="width: 1.2216796875em; height: 1em;vertical-align: middle;fill: currentColor;overflow: hidden;" viewBox="0 0 1251 1024" version="1.1" xmlns="http://www.w3.org/2000/svg" p-id="2672"><path d="M951.45312508 116.4921875a131.83593775 131.83593775 0 0 1 131.83593777 131.83593775v527.3437495a131.83593775 131.83593775 0 0 1-131.83593777 131.83593775H248.32812525a131.83593775 131.83593775 0 0 1-131.83593775-131.83593775V248.32812525a131.83593775 131.83593775 0 0 1 131.83593775-131.83593775h703.12499983z m1.23046884 87.89062518H248.32812525a43.94531258 43.94531258 0 0 0-43.94531258 42.71484375V775.67187475a43.94531258 43.94531258 0 0 0 42.71484375 43.94531258H951.45312508a43.94531258 43.94531258 0 0 0 43.94531259-42.71484375V248.32812525a43.94531258 43.94531258 0 0 0-42.71484375-43.94531258zM380.16406225 292.27343785v175.78124957h109.86328185V292.27343785h87.8906244v439.4531243h-87.8906244v-175.78124957H380.16406225v175.78124957H292.27343785V292.27343785h87.8906244z m380.30273479 0c58.75488247 0 80.06835972 6.1523434 101.55761702 17.57812457 21.53320347 11.51367196 38.36425781 28.38867171 49.83398438 49.87792977 11.51367196 21.48925807 17.62206997 42.80273455 17.62206996 101.51367162v101.51367238c0 58.71093785-6.1523434 80.02441432-17.57812457 101.51367162a119.79492179 119.79492179 0 0 1-49.87792977 49.83398438c-21.48925807 11.51367196-42.80273455 17.62206997-101.51367162 17.62206996H643.83593775V292.27343785h116.6308593z m24.785156 87.8906244H731.72656215v263.6718755h53.52539089c19.59960903 0 26.67480503-2.02148446 33.83789106-5.88867178a39.94628906 39.94628906 0 0 0 16.61132812-16.61132812c3.86718733-7.16308602 5.88867179-14.23828125 5.88867178-33.83789106V436.50195321c0-19.59960903-2.02148446-26.67480503-5.88867178-33.83789106a39.94628906 39.94628906 0 0 0-16.61132812-16.61132812c-7.16308602-3.86718733-14.23828125-5.88867179-33.83789106-5.88867178z" fill="#2cc8cd" p-id="2673"></path></svg>