<svg t="1599489286806" class="icon" style="width: 1.134765625em; height: 1em;vertical-align: middle;fill: currentColor;overflow: hidden;" viewBox="0 0 1162 1024" version="1.1" xmlns="http://www.w3.org/2000/svg" p-id="1894"><path d="M777.797189 0a166.08173 166.08173 0 0 1 151.773406 98.525405h110.508973l5.313729 0.138379a96.864865 96.864865 0 0 1 91.412757 91.412757l0.138378 5.313729-0.110702 11.734487c-2.961297 218.361081-66.36627 344.064-195.168865 358.759784C907.402378 717.63027 783.083243 826.976865 636.540541 848.536216V940.972973h152.216216a41.513514 41.513514 0 0 1 0 83.027027h-415.135135a41.513514 41.513514 0 0 1 0-83.027027H553.513514v-89.835243A367.616 367.616 0 0 1 225.058595 567.904865C81.781622 562.784865 14.114595 430.91027 15.830486 194.670703a96.864865 96.864865 0 0 1 91.606487-96.006919l5.258378-0.138379h123.322811A166.08173 166.08173 0 0 1 387.459459 0h390.33773z m0 83.027027H387.597838a83.027027 83.027027 0 0 0-82.75027 78.322162l-0.110703 4.843243 0.664216 380.623568 1.798919 7.500108a284.588973 284.588973 0 0 0 212.825946 207.844324l8.025946 1.715892c149.088865 29.419243 293.915676-63.377297 330.862703-208.896l1.909621-8.108973V166.054054a83.027027 83.027027 0 0 0-78.128432-82.888649L777.797189 83.027027zM583.126486 249.081081c25.516973 0 48.155676 14.502054 58.229622 37.168433l16.024216 34.096432 35.895352 5.036973c23.35827 3.238054 41.734919 18.432 50.81254 40.046703l1.798919 4.704864c8.38573 24.409946 1.771243 51.033946-15.968865 67.750055l-26.457946 27.426594 6.614487 38.801297c3.155027 23.053838-4.760216 46.578162-21.365622 60.332973l-3.680865 2.767568a61.993514 61.993514 0 0 1-69.216865 5.562811l-31.716324-17.186595-32.103784 17.435676c-8.524108 4.428108-16.799135 7.140324-25.793729 7.915243l-5.50746 0.249081c-13.284324 0-26.457946-4.566486-38.469189-12.952216-19.981838-15.55373-29.806703-40.323459-24.908108-63.958487l6.420757-37.943351-27.398919-28.450594c-15.498378-16.134919-22.029838-39.299459-17.158919-62.713082l1.190054-5.009297c8.302703-24.133189 27.592649-41.319784 52.583784-44.779243l35.923027-5.036973 16.522378-35.037405c10.682811-20.646054 30.581622-34.317838 52.915892-36.03373z m0 55.351351a9.797189 9.797189 0 0 0-8.136648 5.396757l-28.810379 61.190919-65.591351 9.188324a9.105297 9.105297 0 0 0-7.36173 6.282379 13.837838 13.837838 0 0 0 3.016649 13.007567l46.771892 48.570811-11.319351 66.421622a9.686486 9.686486 0 0 0 3.293405 9.188324 11.900541 11.900541 0 0 0 5.701189 2.158703 11.734486 11.734486 0 0 0 5.341406-1.715892l58.063567-31.494919 58.395676 31.660973c3.044324 1.715892 5.645838 1.522162 9.769513-1.660541 2.048-1.383784 3.680865-5.811892 3.099676-10.101621l-11.125622-65.452973 46.716541-48.51546c2.933622-2.767568 3.90227-6.642162 2.601513-10.406054-1.743568-5.12-4.400432-7.472432-7.915243-7.942919l-65.563675-9.188324-29.05946-61.716757c-1.383784-3.127351-4.096-4.870919-7.887568-4.870919zM221.737514 181.552432h-109.042163a13.837838 13.837838 0 0 0-13.837837 13.727136c-1.383784 192.207568 41.651892 281.710703 123.405837 289.238486L221.709838 181.552432z m818.342054 0h-96.228325v299.39546c69.687351-17.518703 107.741405-103.922162 109.983135-274.542703l0.083027-11.014919-0.221405-2.490811a13.837838 13.837838 0 0 0-11.125622-11.125621l-2.49081-0.221406z" fill="#2cc8cd" p-id="1895"></path></svg>