<svg t="1599452704766" class="icon" style="width: 1em; height: 1em;vertical-align: middle;fill: currentColor;overflow: hidden;" viewBox="0 0 1024 1024" version="1.1" xmlns="http://www.w3.org/2000/svg" p-id="1850"><path d="M908.8 892.928c13.312-13.824 20.992-27.136 7.168-40.96L751.616 687.616c46.592-58.368 72.192-130.56 72.192-205.312 0-181.248-147.456-328.192-328.192-328.192-181.248 0-328.192 147.456-328.192 328.192 0 181.248 147.456 328.192 328.192 328.192 72.192 0 142.848-24.064 200.192-68.608l165.376 165.376c12.288 12.288 27.648 5.12 40.96-6.656 2.048-2.048 4.608-4.608 6.656-7.68zM495.104 732.16c-137.728 0-250.368-112.128-250.368-250.368 0-137.728 112.128-250.368 250.368-250.368 137.728 0 250.368 112.128 250.368 250.368S632.832 732.16 495.104 732.16z" fill="#2cc8cd" p-id="1851"></path></svg>