<svg t="1599745568986" class="icon" style="width: 1.015625em; height: 1em;vertical-align: middle;fill: currentColor;overflow: hidden;" viewBox="0 0 1040 1024" version="1.1" xmlns="http://www.w3.org/2000/svg" p-id="2152"><path d="M884.91748385 322.95441335c17.15973293-17.16210442 17.15973293-44.98382726-0.00158125-62.14514067-17.15973293-17.16131418-44.98540776-17.16131418-62.14356019-0.00158126l-0.00158127 0.00158126 0 0-277.84412163 277.84175014c-18.16048047 18.16206097-47.6074291 18.16206096-65.77028108 0L201.27271382 260.76658641c-17.16210442-17.16210442-44.98461752-17.16210442-62.14514068-0.00158126-17.16210442 17.16131419-17.16210442 44.98540776 0 62.14672194 0.01422901 0.01264775 0.02766701 0.0252955 0.0434765 0.04110499l285.18135393 285.18056369c48.43110889 48.43110889 126.95498897 48.43110889 175.38767912 0L884.91590337 322.95441335l0 0L884.91748385 322.95441335z" fill="#2cc8cd" p-id="2153"></path><path d="M160.47210547 776.28660434l0.00158127 0 0 0.00158127L863.56899953 776.28818561l0-0.00158127c24.26930721-0.00158125 43.93881297-19.67424877 43.93881297-43.94355597 0-24.26614546-19.66950577-43.94118448-43.93881297-43.94276573l0 0-703.0961038 0 0 0-0.00158127 0c-24.26772595 0-43.94118448 19.675039-43.94118447 43.94276573C116.53092099 756.61393683 136.20358851 776.28660435 160.47210547 776.28660434z" fill="#2cc8cd" p-id="2154"></path></svg>