<svg t="1599745589926" class="icon" style="width: 1.015625em; height: 1em;vertical-align: middle;fill: currentColor;overflow: hidden;" viewBox="0 0 1040 1024" version="1.1" xmlns="http://www.w3.org/2000/svg" p-id="2282"><path d="M139.08251615 701.04558665c-17.15973293 17.16210442-17.15973293 44.98382726 0.00158125 62.14514067 17.15973293 17.16131418 44.98540776 17.16131418 62.1435602 0.00158126l0.00158125-0.00158126 0 0 277.84412164-277.84175014c18.16048047-18.16206096 47.60742911-18.16206096 65.77028108 0L822.72728619 763.23341359c17.16210442 17.16210442 44.98461752 17.16210442 62.14514067 0.00158126 17.16210442-17.16131418 17.16210442-44.98540776 0-62.14672193-0.01422901-0.01264775-0.02766701-0.0252955-0.0434765-0.041105l-285.18135393-285.18056369c-48.43110889-48.43110889-126.95498897-48.43110889-175.38767912 0L139.08409663 701.04558665l0 0L139.08251615 701.04558665z" fill="#2cc8cd" p-id="2283"></path><path d="M863.52789452 247.71339566l-0.00158126 0 0-0.00158127L160.43100047 247.71181439l0 0.00158127c-24.26930721 0.00158125-43.93881297 19.67424877-43.93881297 43.94355597 0 24.26614546 19.66950577 43.94118448 43.93881297 43.94276573l0 0 703.0961038 0 0 0 0.00158127 0c24.26772594 0 43.94118448-19.67503901 43.94118447-43.94276573C907.469079 267.38606317 887.79641149 247.71339566 863.52789452 247.71339566z" fill="#2cc8cd" p-id="2284"></path></svg>