<svg t="1599745506453" class="icon" style="width: 1em; height: 1em;vertical-align: middle;fill: currentColor;overflow: hidden;" viewBox="0 0 1024 1024" version="1.1" xmlns="http://www.w3.org/2000/svg" p-id="1894"><path d="M861.9999998 761.99999961c-15.00000029 0-29.99999971-5.0000001-39.9999999-14.99999942L546.9999998 422c-10.00000019-5.0000001-15.00000029-10.00000019-29.9999997-10.00000019-5.0000001 0-20.00000039 5.0000001-25.00000049 10.00000019l-289.99999951 320.0000001c-20.00000039 20.00000039-50.0000001 20.00000039-70.00000049 5.0000001-20.00000039-20.00000039-20.00000039-50.0000001-4.99999922-70.00000049l289.99999951-320.0000001c24.99999961-29.99999971 65.00000039-45 105.00000029-45s74.99999971 20.00000039 104.99999942 50.0000001l275.0000001 320.0000001c20.00000039 20.00000039 15.00000029 50.0000001-5.0000001 70.00000048-10.00000019 5.0000001-24.99999961 10.00000019-34.99999981 9.99999932z" fill="#2cc8cd" p-id="1895" data-spm-anchor-id="a313x.7781069.0.i0"></path></svg>